<svg width="276" height="97" viewBox="0 0 276 97" fill="none" xmlns="http://www.w3.org/2000/svg">
<g filter="url(#filter0_d_210_32)">
<path d="M4 44.5C4 19.9233 23.9233 0 48.5 0H227.5C252.077 0 272 19.9233 272 44.5V44.5C272 69.0767 252.077 89 227.5 89H48.5C23.9233 89 4 69.0767 4 44.5V44.5Z" fill="#171717" fill-opacity="0.92" shape-rendering="crispEdges"/>
</g>
<path d="M19.9375 59H12.0824V33.5455H20.2855C22.7547 33.5455 24.8677 34.055 26.6243 35.0742C28.3809 36.0851 29.7274 37.5393 30.6637 39.4368C31.6 41.326 32.0682 43.5881 32.0682 46.223C32.0682 48.8745 31.5959 51.1573 30.6513 53.0714C29.7067 54.9772 28.3312 56.4438 26.5249 57.4712C24.7185 58.4904 22.5227 59 19.9375 59ZM15.1648 56.2656H19.7386C21.8433 56.2656 23.5875 55.8596 24.9712 55.0476C26.355 54.2356 27.3866 53.0797 28.0661 51.5799C28.7455 50.0801 29.0852 48.2945 29.0852 46.223C29.0852 44.1681 28.7496 42.399 28.0785 40.9158C27.4073 39.4244 26.4047 38.2809 25.0707 37.4854C23.7366 36.6817 22.0753 36.2798 20.0866 36.2798H15.1648V56.2656ZM44.5966 59.3977C42.8731 59.3977 41.3609 58.9876 40.06 58.1673C38.7674 57.3469 37.7565 56.1993 37.0273 54.7244C36.3065 53.2495 35.946 51.526 35.946 49.554C35.946 47.5653 36.3065 45.8294 37.0273 44.3462C37.7565 42.863 38.7674 41.7113 40.06 40.891C41.3609 40.0707 42.8731 39.6605 44.5966 39.6605C46.3201 39.6605 47.8281 40.0707 49.1207 40.891C50.4216 41.7113 51.4325 42.863 52.1534 44.3462C52.8826 45.8294 53.2472 47.5653 53.2472 49.554C53.2472 51.526 52.8826 53.2495 52.1534 54.7244C51.4325 56.1993 50.4216 57.3469 49.1207 58.1673C47.8281 58.9876 46.3201 59.3977 44.5966 59.3977ZM44.5966 56.7628C45.9058 56.7628 46.983 56.4272 47.8281 55.756C48.6733 55.0849 49.2989 54.2024 49.7049 53.1087C50.1109 52.0149 50.3139 50.83 50.3139 49.554C50.3139 48.2779 50.1109 47.0889 49.7049 45.9869C49.2989 44.8848 48.6733 43.9941 47.8281 43.3146C46.983 42.6352 45.9058 42.2955 44.5966 42.2955C43.2874 42.2955 42.2102 42.6352 41.3651 43.3146C40.5199 43.9941 39.8943 44.8848 39.4883 45.9869C39.0823 47.0889 38.8793 48.2779 38.8793 49.554C38.8793 50.83 39.0823 52.0149 39.4883 53.1087C39.8943 54.2024 40.5199 55.0849 41.3651 55.756C42.2102 56.4272 43.2874 56.7628 44.5966 56.7628ZM61.4006 59L55.5838 39.9091H58.6662L62.7926 54.5256H62.9915L67.0682 39.9091H70.2003L74.2273 54.4759H74.4261L78.5526 39.9091H81.6349L75.8182 59H72.9347L68.7585 44.3338H68.4602L64.2841 59H61.4006ZM88.446 47.5156V59H85.5128V39.9091H88.3466V42.892H88.5952C89.0426 41.9226 89.7221 41.1437 90.6335 40.5554C91.545 39.9588 92.7216 39.6605 94.1634 39.6605C95.456 39.6605 96.587 39.9257 97.5565 40.456C98.5259 40.978 99.2799 41.7734 99.8185 42.8423C100.357 43.9029 100.626 45.2453 100.626 46.8693V59H97.6932V47.0682C97.6932 45.5684 97.3037 44.4001 96.5249 43.5632C95.746 42.718 94.6771 42.2955 93.3182 42.2955C92.3819 42.2955 91.545 42.4985 90.8075 42.9045C90.0784 43.3105 89.5025 43.9029 89.0799 44.6818C88.6573 45.4607 88.446 46.4053 88.446 47.5156ZM108.92 33.5455V59H105.986V33.5455H108.92ZM122.048 59.3977C120.324 59.3977 118.812 58.9876 117.511 58.1673C116.219 57.3469 115.208 56.1993 114.479 54.7244C113.758 53.2495 113.397 51.526 113.397 49.554C113.397 47.5653 113.758 45.8294 114.479 44.3462C115.208 42.863 116.219 41.7113 117.511 40.891C118.812 40.0707 120.324 39.6605 122.048 39.6605C123.771 39.6605 125.279 40.0707 126.572 40.891C127.873 41.7113 128.884 42.863 129.605 44.3462C130.334 45.8294 130.698 47.5653 130.698 49.554C130.698 51.526 130.334 53.2495 129.605 54.7244C128.884 56.1993 127.873 57.3469 126.572 58.1673C125.279 58.9876 123.771 59.3977 122.048 59.3977ZM122.048 56.7628C123.357 56.7628 124.434 56.4272 125.279 55.756C126.124 55.0849 126.75 54.2024 127.156 53.1087C127.562 52.0149 127.765 50.83 127.765 49.554C127.765 48.2779 127.562 47.0889 127.156 45.9869C126.75 44.8848 126.124 43.9941 125.279 43.3146C124.434 42.6352 123.357 42.2955 122.048 42.2955C120.739 42.2955 119.661 42.6352 118.816 43.3146C117.971 43.9941 117.345 44.8848 116.939 45.9869C116.533 47.0889 116.33 48.2779 116.33 49.554C116.33 50.83 116.533 52.0149 116.939 53.1087C117.345 54.2024 117.971 55.0849 118.816 55.756C119.661 56.4272 120.739 56.7628 122.048 56.7628ZM140.794 59.4474C139.584 59.4474 138.486 59.2196 137.5 58.7638C136.514 58.2998 135.731 57.6328 135.151 56.7628C134.571 55.8845 134.281 54.8239 134.281 53.581C134.281 52.4872 134.496 51.6006 134.927 50.9212C135.358 50.2334 135.934 49.6948 136.655 49.3054C137.376 48.916 138.171 48.6259 139.041 48.4354C139.92 48.2365 140.802 48.0791 141.689 47.9631C142.849 47.8139 143.789 47.7021 144.51 47.6275C145.239 47.5446 145.77 47.4079 146.101 47.2173C146.441 47.0268 146.611 46.6953 146.611 46.223V46.1236C146.611 44.8973 146.275 43.9444 145.604 43.2649C144.941 42.5855 143.934 42.2457 142.584 42.2457C141.183 42.2457 140.085 42.5523 139.29 43.1655C138.494 43.7786 137.935 44.4332 137.612 45.1293L134.828 44.1349C135.325 42.9749 135.988 42.0717 136.816 41.4254C137.653 40.7708 138.565 40.3151 139.551 40.0582C140.545 39.7931 141.523 39.6605 142.484 39.6605C143.097 39.6605 143.802 39.7351 144.597 39.8842C145.401 40.0251 146.176 40.3192 146.921 40.7667C147.675 41.2141 148.301 41.8894 148.798 42.7926C149.295 43.6958 149.544 44.9055 149.544 46.4219V59H146.611V56.4148H146.461C146.263 56.8291 145.931 57.2724 145.467 57.7447C145.003 58.217 144.386 58.6188 143.615 58.9503C142.845 59.2817 141.904 59.4474 140.794 59.4474ZM141.241 56.8125C142.401 56.8125 143.379 56.5846 144.174 56.1289C144.978 55.6732 145.583 55.0849 145.989 54.364C146.403 53.6431 146.611 52.8849 146.611 52.0895V49.4048C146.486 49.554 146.213 49.6907 145.79 49.815C145.376 49.931 144.895 50.0346 144.348 50.1257C143.81 50.2086 143.284 50.2831 142.77 50.3494C142.265 50.4074 141.854 50.4571 141.54 50.4986C140.777 50.598 140.065 50.7596 139.402 50.9833C138.747 51.1987 138.217 51.526 137.811 51.9652C137.413 52.3961 137.214 52.9844 137.214 53.7301C137.214 54.7493 137.591 55.5199 138.345 56.0419C139.108 56.5556 140.073 56.8125 141.241 56.8125ZM162.106 59.3977C160.515 59.3977 159.111 58.9959 157.893 58.1921C156.675 57.3801 155.722 56.2366 155.034 54.7617C154.347 53.2785 154.003 51.526 154.003 49.5043C154.003 47.4991 154.347 45.759 155.034 44.2841C155.722 42.8092 156.679 41.6699 157.905 40.8661C159.132 40.0624 160.549 39.6605 162.156 39.6605C163.399 39.6605 164.381 39.8677 165.102 40.282C165.831 40.688 166.386 41.152 166.767 41.674C167.157 42.1877 167.459 42.6103 167.675 42.9418H167.923V33.5455H170.856V59H168.023V56.0668H167.675C167.459 56.4148 167.153 56.8539 166.755 57.3842C166.357 57.9062 165.789 58.3744 165.052 58.7887C164.315 59.1947 163.333 59.3977 162.106 59.3977ZM162.504 56.7628C163.681 56.7628 164.675 56.4562 165.487 55.843C166.299 55.2216 166.916 54.364 167.339 53.2702C167.762 52.1682 167.973 50.8963 167.973 49.4545C167.973 48.0294 167.766 46.7823 167.351 45.7134C166.937 44.6362 166.324 43.7994 165.512 43.2028C164.7 42.5979 163.697 42.2955 162.504 42.2955C161.261 42.2955 160.225 42.6145 159.397 43.2525C158.577 43.8822 157.959 44.7398 157.545 45.8253C157.139 46.9025 156.936 48.1122 156.936 49.4545C156.936 50.8134 157.143 52.0481 157.557 53.1584C157.98 54.2604 158.601 55.1387 159.422 55.7933C160.25 56.4396 161.278 56.7628 162.504 56.7628ZM186.877 59V33.5455H189.96V44.8807H203.532V33.5455H206.615V59H203.532V47.6151H189.96V59H186.877ZM220.392 59.3977C218.553 59.3977 216.966 58.9917 215.632 58.1797C214.306 57.3594 213.283 56.2159 212.562 54.7493C211.849 53.2744 211.493 51.5592 211.493 49.6037C211.493 47.6482 211.849 45.9247 212.562 44.4332C213.283 42.9335 214.285 41.7652 215.57 40.9283C216.862 40.0831 218.37 39.6605 220.094 39.6605C221.088 39.6605 222.07 39.8262 223.039 40.1577C224.009 40.4891 224.891 41.0277 225.687 41.7734C226.482 42.5109 227.116 43.4886 227.588 44.7067C228.061 45.9247 228.297 47.4245 228.297 49.206V50.4489H213.581V47.9134H225.314C225.314 46.8362 225.098 45.875 224.668 45.0298C224.245 44.1847 223.64 43.5176 222.853 43.0288C222.074 42.5399 221.154 42.2955 220.094 42.2955C218.925 42.2955 217.915 42.5855 217.061 43.1655C216.216 43.7372 215.565 44.483 215.11 45.4027C214.654 46.3224 214.426 47.3085 214.426 48.3608V50.0511C214.426 51.4929 214.675 52.7151 215.172 53.7177C215.677 54.712 216.377 55.4702 217.272 55.9922C218.167 56.5059 219.207 56.7628 220.392 56.7628C221.163 56.7628 221.859 56.6551 222.48 56.4396C223.11 56.2159 223.653 55.8845 224.108 55.4453C224.564 54.9979 224.916 54.4427 225.165 53.7798L227.999 54.5753C227.7 55.5365 227.199 56.3816 226.495 57.1108C225.79 57.8317 224.92 58.3951 223.885 58.8011C222.849 59.1989 221.685 59.3977 220.392 59.3977ZM232.759 59V39.9091H235.593V42.7926H235.792C236.14 41.848 236.769 41.0816 237.681 40.4933C238.592 39.9049 239.62 39.6108 240.763 39.6108C240.979 39.6108 241.248 39.6149 241.571 39.6232C241.894 39.6315 242.139 39.6439 242.304 39.6605V42.6435C242.205 42.6186 241.977 42.5813 241.621 42.5316C241.273 42.4736 240.904 42.4446 240.515 42.4446C239.587 42.4446 238.758 42.6393 238.029 43.0288C237.308 43.4099 236.736 43.9402 236.314 44.6197C235.899 45.2908 235.692 46.0573 235.692 46.919V59H232.759ZM253.205 59.3977C251.365 59.3977 249.778 58.9917 248.444 58.1797C247.118 57.3594 246.095 56.2159 245.374 54.7493C244.662 53.2744 244.305 51.5592 244.305 49.6037C244.305 47.6482 244.662 45.9247 245.374 44.4332C246.095 42.9335 247.098 41.7652 248.382 40.9283C249.675 40.0831 251.183 39.6605 252.906 39.6605C253.901 39.6605 254.882 39.8262 255.852 40.1577C256.821 40.4891 257.704 41.0277 258.499 41.7734C259.295 42.5109 259.929 43.4886 260.401 44.7067C260.873 45.9247 261.109 47.4245 261.109 49.206V50.4489H246.393V47.9134H258.126C258.126 46.8362 257.911 45.875 257.48 45.0298C257.058 44.1847 256.453 43.5176 255.665 43.0288C254.887 42.5399 253.967 42.2955 252.906 42.2955C251.738 42.2955 250.727 42.5855 249.874 43.1655C249.028 43.7372 248.378 44.483 247.922 45.4027C247.467 46.3224 247.239 47.3085 247.239 48.3608V50.0511C247.239 51.4929 247.487 52.7151 247.984 53.7177C248.49 54.712 249.19 55.4702 250.085 55.9922C250.98 56.5059 252.02 56.7628 253.205 56.7628C253.975 56.7628 254.671 56.6551 255.293 56.4396C255.922 56.2159 256.465 55.8845 256.921 55.4453C257.377 54.9979 257.729 54.4427 257.977 53.7798L260.811 54.5753C260.513 55.5365 260.011 56.3816 259.307 57.1108C258.603 57.8317 257.733 58.3951 256.697 58.8011C255.661 59.1989 254.497 59.3977 253.205 59.3977Z" fill="#66FCF1"/>
<defs>
<filter id="filter0_d_210_32" x="0" y="0" width="276" height="97" filterUnits="userSpaceOnUse" color-interpolation-filters="sRGB">
<feFlood flood-opacity="0" result="BackgroundImageFix"/>
<feColorMatrix in="SourceAlpha" type="matrix" values="0 0 0 0 0 0 0 0 0 0 0 0 0 0 0 0 0 0 127 0" result="hardAlpha"/>
<feOffset dy="4"/>
<feGaussianBlur stdDeviation="2"/>
<feComposite in2="hardAlpha" operator="out"/>
<feColorMatrix type="matrix" values="0 0 0 0 1 0 0 0 0 1 0 0 0 0 1 0 0 0 0.25 0"/>
<feBlend mode="normal" in2="BackgroundImageFix" result="effect1_dropShadow_210_32"/>
<feBlend mode="normal" in="SourceGraphic" in2="effect1_dropShadow_210_32" result="shape"/>
</filter>
</defs>
</svg>
